<?xml version="1.0" encoding="iso-8859-1"?>
<!-- Generator: Adobe Illustrator 19.0.0, SVG Export Plug-In . SVG Version: 6.00 Build 0)  -->
<svg version="1.1" id="Capa_1" xmlns="http://www.w3.org/2000/svg" xmlns:xlink="http://www.w3.org/1999/xlink" x="0px" y="0px"
	 viewBox="0 0 358.299 358.299" style="enable-background:new 0 0 358.299 358.299;" xml:space="preserve">
<path fill="#ffffff" id="XMLID_169_" d="M251.787,27.034c-27.396,0-53.066,10.247-72.638,28.581c-19.572-18.334-45.242-28.581-72.638-28.581
	C47.781,27.034,0,74.816,0,133.547c0,28.929,9.521,57.409,28.298,84.647c14.518,21.06,34.603,41.417,59.695,60.504
	c42.092,32.02,83.649,49.464,85.398,50.191l5.715,2.376l5.728-2.345c1.75-0.716,43.334-17.913,85.448-49.817
	c25.107-19.02,45.202-39.37,59.727-60.486c18.772-27.29,28.29-55.911,28.29-85.069C358.299,74.816,310.518,27.034,251.787,27.034z
	 M179.181,298.625C151.149,285.642,30,224.254,30,133.547c0-42.189,34.323-76.512,76.512-76.512
	c23.976,0,46.114,10.929,60.738,29.985l11.9,15.507l11.9-15.507c14.624-19.056,36.762-29.985,60.738-29.985
	c42.188,0,76.512,34.323,76.512,76.512C328.299,224.906,207.201,285.771,179.181,298.625z"/>
<g>
</g>
<g>
</g>
<g>
</g>
<g>
</g>
<g>
</g>
<g>
</g>
<g>
</g>
<g>
</g>
<g>
</g>
<g>
</g>
<g>
</g>
<g>
</g>
<g>
</g>
<g>
</g>
<g>
</g>
</svg>
