<?xml version="1.0" encoding="utf-8"?>
<!-- Generator: Adobe Illustrator 23.0.2, SVG Export Plug-In . SVG Version: 6.00 Build 0)  -->
<svg version="1.1" id="Calque_1" xmlns="http://www.w3.org/2000/svg" xmlns:xlink="http://www.w3.org/1999/xlink" x="0px" y="0px"
	 viewBox="0 0 24 24" style="enable-background:new 0 0 24 24;" xml:space="preserve">
<style type="text/css">
	.st0{opacity:0.75;}
	.st1{fill:#9B9B9B;}
</style>
<g id="Icons" class="st0">
	<path id="search-big" class="st1" d="M18.9,17.4l-3.6-3.6c-0.1-0.1-0.2-0.1-0.3-0.2c0.6-0.9,1-2,1-3.2c0-3-2.5-5.5-5.5-5.5
		S5,7.5,5,10.5S7.5,16,10.5,16c1.2,0,2.3-0.4,3.2-1c0,0.1,0.1,0.2,0.2,0.3l3.6,3.6c0.3,0.3,0.9,0.2,1.2-0.2
		C19.1,18.3,19.2,17.7,18.9,17.4z M10.5,14C8.6,14,7,12.4,7,10.5S8.6,7,10.5,7S14,8.6,14,10.5S12.4,14,10.5,14z"/>
</g>
<g id="Guides">
</g>
</svg>
